<svg xmlns="http://www.w3.org/2000/svg" xmlns:xlink="http://www.w3.org/1999/xlink" width="100%" zoomAndPan="magnify" viewBox="0 0 1440 809.999993" height="100%" preserveAspectRatio="xMidYMid meet" version="1.0"><defs><clipPath id="9e0d693cc1"><path d="M 818.25 354 L 914.25 354 L 914.25 702 L 818.25 702 Z M 818.25 354 " clip-rule="nonzero"/></clipPath><clipPath id="8caf93cb42"><path d="M 690 203 L 1050 203 L 1050 450 L 690 450 Z M 690 203 " clip-rule="nonzero"/></clipPath><clipPath id="c6d703b7d4"><path d="M 690.90625 264.445312 L 726.703125 201.976562 L 1050.773438 387.660156 L 1014.980469 450.128906 Z M 690.90625 264.445312 " clip-rule="nonzero"/></clipPath><clipPath id="27076f21a3"><path d="M 690.90625 264.445312 L 725.785156 203.570312 L 1049.628906 389.125 L 1014.75 450 Z M 690.90625 264.445312 " clip-rule="nonzero"/></clipPath><clipPath id="a4060ac6a4"><path d="M 646.125 606 L 906.75 606 L 906.75 702 L 646.125 702 Z M 646.125 606 " clip-rule="nonzero"/></clipPath><clipPath id="3ef20ee252"><path d="M 513.753906 479.996094 L 714.089844 479.996094 L 714.089844 575.996094 L 513.753906 575.996094 Z M 513.753906 479.996094 " clip-rule="nonzero"/></clipPath><clipPath id="050ecb82bf"><path d="M 513.75 354 L 778.5 354 L 778.5 450 L 513.75 450 Z M 513.75 354 " clip-rule="nonzero"/></clipPath><clipPath id="3749f14481"><path d="M 513.75 354 L 609.75 354 L 609.75 702 L 513.75 702 Z M 513.75 354 " clip-rule="nonzero"/></clipPath><clipPath id="bfd17b2243"><path d="M 371 195 L 735 195 L 735 450 L 371 450 Z M 371 195 " clip-rule="nonzero"/></clipPath><clipPath id="772f0ad69c"><path d="M 411.152344 449.992188 L 371.726562 381.824219 L 695.046875 194.828125 L 734.472656 263 Z M 411.152344 449.992188 " clip-rule="nonzero"/></clipPath><clipPath id="9ecd5ee76d"><path d="M 411.152344 449.992188 L 371.871094 382.066406 L 694.960938 195.207031 L 734.246094 263.132812 Z M 411.152344 449.992188 " clip-rule="nonzero"/></clipPath><clipPath id="b4ec27c40b"><path d="M 383 245 L 715 245 L 715 445 L 383 445 Z M 383 245 " clip-rule="nonzero"/></clipPath><clipPath id="44d33dab8e"><path d="M 391.46875 444.882812 L 383.582031 431.25 L 706.910156 244.265625 L 714.792969 257.898438 Z M 391.46875 444.882812 " clip-rule="nonzero"/></clipPath><clipPath id="3c594504c9"><path d="M 391.46875 444.882812 L 383.851562 431.710938 L 706.46875 245.136719 L 714.085938 258.308594 Z M 391.46875 444.882812 " clip-rule="nonzero"/></clipPath><clipPath id="ee1d4cda12"><path d="M 353 174 L 738 174 L 738 426 L 353 426 Z M 353 174 " clip-rule="nonzero"/></clipPath><clipPath id="4f94677c3c"><path d="M 379.550781 425.328125 L 352.640625 378.507812 L 711.585938 172.222656 L 738.496094 219.042969 Z M 379.550781 425.328125 " clip-rule="nonzero"/></clipPath><clipPath id="937fbad7be"><path d="M 379.550781 425.328125 L 353.464844 379.941406 L 711.824219 173.996094 L 737.90625 219.378906 Z M 379.550781 425.328125 " clip-rule="nonzero"/></clipPath><clipPath id="81cbaed87a"><path d="M 683 174 L 1068 174 L 1068 427 L 683 427 Z M 683 174 " clip-rule="nonzero"/></clipPath><clipPath id="4c079d124a"><path d="M 683.394531 219.25 L 710.539062 172.566406 L 1068.445312 380.652344 L 1041.300781 427.332031 Z M 683.394531 219.25 " clip-rule="nonzero"/></clipPath><clipPath id="b8bb5e4b5d"><path d="M 683.394531 219.25 L 709.707031 173.996094 L 1067.027344 381.742188 L 1040.714844 426.992188 Z M 683.394531 219.25 " clip-rule="nonzero"/></clipPath><clipPath id="626a9418b5"><path d="M 686 107 L 1126 107 L 1126 396 L 686 396 Z M 686 107 " clip-rule="nonzero"/></clipPath><clipPath id="f510060a6e"><path d="M 686.25 161.996094 L 717.570312 107.332031 L 1125.589844 341.113281 L 1094.269531 395.777344 Z M 686.25 161.996094 " clip-rule="nonzero"/></clipPath><clipPath id="c89c9d9495"><path d="M 686.25 161.996094 L 717.445312 107.546875 L 1125.066406 341.097656 L 1093.867188 395.546875 Z M 686.25 161.996094 " clip-rule="nonzero"/></clipPath><clipPath id="b39778d134"><path d="M 314 108 L 735 108 L 735 390 L 314 390 Z M 314 108 " clip-rule="nonzero"/></clipPath><clipPath id="ee53384bab"><path d="M 345.929688 389.988281 L 314.121094 335.605469 L 702.5625 108.417969 L 734.371094 162.800781 Z M 345.929688 389.988281 " clip-rule="nonzero"/></clipPath><clipPath id="3459c31d93"><path d="M 345.929688 389.988281 L 314.246094 335.820312 L 702.566406 108.703125 L 734.246094 162.871094 Z M 345.929688 389.988281 " clip-rule="nonzero"/></clipPath><clipPath id="4668078b1b"><path d="M 705 246 L 1037 246 L 1037 446 L 705 446 Z M 705 246 " clip-rule="nonzero"/></clipPath><clipPath id="17487054ec"><path d="M 1036.128906 432.753906 L 1028.238281 446.386719 L 705.015625 259.21875 L 712.910156 245.589844 Z M 1036.128906 432.753906 " clip-rule="nonzero"/></clipPath><clipPath id="04220952ee"><path d="M 1036.128906 432.753906 L 1028.503906 445.921875 L 705.992188 259.164062 L 713.617188 246 Z M 1036.128906 432.753906 " clip-rule="nonzero"/></clipPath><clipPath id="c75b914675"><path d="M 705.96875 245.109375 L 714.492188 245.109375 L 714.492188 260.917969 L 705.96875 260.917969 Z M 705.96875 245.109375 " clip-rule="nonzero"/></clipPath><clipPath id="561d5c4a6b"><path d="M 710.238281 260.917969 L 705.984375 245.140625 L 714.492188 245.140625 L 710.238281 260.917969 " clip-rule="nonzero"/></clipPath></defs><g clip-path="url(#9e0d693cc1)"><path fill="#000000" d="M 818.25 354 L 915 354 L 915 702.75 L 818.25 702.75 Z M 818.25 354 " fill-opacity="1" fill-rule="nonzero"/></g><g clip-path="url(#8caf93cb42)"><g clip-path="url(#c6d703b7d4)"><g clip-path="url(#27076f21a3)"><path fill="#e5e7eb" d="M 690.90625 264.445312 L 725.582031 203.925781 L 1049.65625 389.609375 L 1014.980469 450.128906 Z M 690.90625 264.445312 " fill-opacity="1" fill-rule="nonzero"/></g></g></g><g clip-path="url(#a4060ac6a4)"><path fill="#000000" d="M 646.125 702 L 646.125 605.25 L 907.125 605.25 L 907.125 702 Z M 646.125 702 " fill-opacity="1" fill-rule="nonzero"/></g><g clip-path="url(#3ef20ee252)"><path fill="#0036ae" d="M 513.753906 575.996094 L 513.753906 479.246094 L 714.003906 479.246094 L 714.003906 575.996094 Z M 513.753906 575.996094 " fill-opacity="1" fill-rule="nonzero"/></g><g clip-path="url(#050ecb82bf)"><path fill="#1ba2d2" d="M 513.75 450 L 513.75 353.25 L 779.25 353.25 L 779.25 450 Z M 513.75 450 " fill-opacity="1" fill-rule="nonzero"/></g><g clip-path="url(#3749f14481)"><path fill="#025bff" d="M 513.75 354 L 610.5 354 L 610.5 702.75 L 513.75 702.75 Z M 513.75 354 " fill-opacity="1" fill-rule="nonzero"/></g><g clip-path="url(#bfd17b2243)"><g clip-path="url(#772f0ad69c)"><g clip-path="url(#9ecd5ee76d)"><path fill="#e5e7eb" d="M 411.152344 449.992188 L 371.726562 381.824219 L 695.046875 194.828125 L 734.472656 263 Z M 411.152344 449.992188 " fill-opacity="1" fill-rule="nonzero"/></g></g></g><g clip-path="url(#b4ec27c40b)"><g clip-path="url(#44d33dab8e)"><g clip-path="url(#3c594504c9)"><path fill="#025bff" d="M 391.46875 444.882812 L 383.582031 431.25 L 706.910156 244.265625 L 714.792969 257.898438 Z M 391.46875 444.882812 " fill-opacity="1" fill-rule="nonzero"/></g></g></g><g clip-path="url(#ee1d4cda12)"><g clip-path="url(#4f94677c3c)"><g clip-path="url(#937fbad7be)"><path fill="#000000" d="M 379.550781 425.328125 L 353.761719 380.460938 L 712.707031 174.171875 L 738.496094 219.042969 Z M 379.550781 425.328125 " fill-opacity="1" fill-rule="nonzero"/></g></g></g><g clip-path="url(#81cbaed87a)"><g clip-path="url(#4c079d124a)"><g clip-path="url(#b8bb5e4b5d)"><path fill="#000000" d="M 683.394531 219.25 L 709.40625 174.511719 L 1067.3125 382.59375 L 1041.300781 427.332031 Z M 683.394531 219.25 " fill-opacity="1" fill-rule="nonzero"/></g></g></g><g clip-path="url(#626a9418b5)"><g clip-path="url(#f510060a6e)"><g clip-path="url(#c89c9d9495)"><path fill="#e5e7eb" d="M 686.25 161.996094 L 717.570312 107.332031 L 1125.589844 341.113281 L 1094.269531 395.777344 Z M 686.25 161.996094 " fill-opacity="1" fill-rule="nonzero"/></g></g></g><g clip-path="url(#b39778d134)"><g clip-path="url(#ee53384bab)"><g clip-path="url(#3459c31d93)"><path fill="#e5e7eb" d="M 345.929688 389.988281 L 314.121094 335.605469 L 702.5625 108.417969 L 734.367188 162.800781 Z M 345.929688 389.988281 " fill-opacity="1" fill-rule="nonzero"/></g></g></g><g clip-path="url(#4668078b1b)"><g clip-path="url(#17487054ec)"><g clip-path="url(#04220952ee)"><path fill="#025bff" d="M 1036.128906 432.753906 L 1028.238281 446.386719 L 705.015625 259.21875 L 712.910156 245.589844 Z M 1036.128906 432.753906 " fill-opacity="1" fill-rule="nonzero"/></g></g></g><g clip-path="url(#c75b914675)"><g clip-path="url(#561d5c4a6b)"><path fill="#025bff" d="M 714.492188 260.917969 L 705.96875 260.917969 L 705.96875 245.109375 L 714.492188 245.109375 Z M 714.492188 260.917969 " fill-opacity="1" fill-rule="nonzero"/></g></g></svg>